<svg xmlns="http://www.w3.org/2000/svg" width="1155.467" height="1346.705" viewBox="0 0 1155.467 1346.705">
  <g id="Group_6" data-name="Group 6" transform="translate(1169.374 1282.731) rotate(176)" opacity="0.504">
    <path id="Path_9555" data-name="Path 9555" d="M0,0A660.9,660.9,0,0,1,144.481,79.513c19.318,14,37.917,29.063,51.939,47.411a142.123,142.123,0,0,1,22.841,44.3c11.8,37.366,9.452,78.23,1.964,116.164-9.127,45.786-25.046,90.876-46.672,133.737q-2.611,5.175-5.326,10.311c-24.086,45.582-55.4,89.061-68.308,138.432-10.852,41.495-6.526,88.283,19.246,123.305,13.147,17.908,30.884,31.921,52.455,42.513C204.245,751.27,242.742,758.2,280.33,761.36q10.556.885,21.181,1.477c44.745,2.508,89.643,1.673,131.726,3.129,49.093,1.7,93.607,9.95,136.261,29.022,29.052,12.991,56.758,34.472,68.728,62.69,17.065,40.2,6.489,81.284,3.748,118.61q-.324,4.416-.5,8.839c-1.753,44.576,8.017,88.173,36.353,125.113,30.157,39.374,85.122,70.108,146.113,66.736" transform="translate(165.61 97.787)" fill="none" stroke="#544ee0" stroke-miterlimit="10" stroke-width="2"/>
    <path id="Path_9556" data-name="Path 9556" d="M0,0A505.9,505.9,0,0,1,136.927,80.319c17.7,14.512,34.341,30.145,47.421,48.175A173.443,173.443,0,0,1,207,171.241c13.251,36.05,15.29,74.97,12.172,112.249-3.837,44.877-14.7,89.628-31.364,132.549q-2.012,5.183-4.127,10.337c-18.763,45.746-44.315,89.925-53.388,138.3-8.372,44.637-.772,94.012,30.617,129.271,15.993,18,36.651,31.135,60.6,40.694,35.03,14.031,76.237,19.585,115.9,22.841q11.152.917,22.4,1.725c47.275,3.422,95.062,5.9,139.482,12.282,52.155,7.492,97.691,23.572,139.659,49.886,23.047,14.45,45.424,34.312,57.063,58.819,16.608,34.947,15.386,70.573,21.552,102.319q.731,3.757,1.6,7.489c8.812,37.628,28.538,71.445,60.931,97.415,34.46,27.675,85.667,45.77,138.384,37.568" transform="translate(105.388 136.903)" fill="none" stroke="#544ee0" stroke-miterlimit="10" stroke-width="2"/>
    <g id="Group_3542" data-name="Group 3542" transform="translate(0 0)">
      <path id="Path_9555-2" data-name="Path 9555" d="M0,0A1651.921,1651.921,0,0,1,163.366,77.5c23.377,12.714,46.856,26.36,63.237,45.5,41.875,48.927,25.974,117.768-.251,174.144A682.238,682.238,0,0,1,133.083,444.1c-37.39,45.17-81.519,87.358-105.608,138.761S4.312,699.494,50.4,738.3c27.418,23.091,66.962,33.387,105.383,33.609s76.123-8.743,112.338-19.756c41.463-12.609,84.182-28.272,127.765-23.135,45.115,5.317,85.094,34.873,97.89,72.367,18.2,53.343-15.754,108.064-40.764,159.337-31.772,65.139-50.247,137.946-30.845,206.568S505.92,1298.247,587.6,1306.95" transform="translate(316.162 0)" fill="none" stroke="#544ee0" stroke-miterlimit="10" stroke-width="2"/>
      <path id="Path_9556-2" data-name="Path 9556" d="M0,0A1466.123,1466.123,0,0,1,161.477,77.7c22.971,12.842,45.961,26.631,62.107,45.692a107.076,107.076,0,0,1,23.254,47.8c8.543,40.331-3.68,85.563-21,124.975a662.291,662.291,0,0,1-81.12,136.412q-3.957,5.155-8.021,10.25c-36.059,45.213-79.021,87.477-101.879,138.73-15.468,34.682-19.473,75.394-6.335,109.88a107.967,107.967,0,0,0,34.136,46.6c23.962,19.075,56.363,29.1,89.286,32.041,6.141.547,12.307.851,18.448.923,39.055.45,77.476-7.692,114.277-17.467,42.225-11.166,85.252-24.265,128.614-17.92,43.541,6.372,82.26,34.831,94.974,71.4,18.09,52.027-13.531,105.385-36.312,155.263q-2.695,5.9-5.23,11.875c-25.524,60.21-38.159,125.81-18.947,187.432,20.478,65.7,83.893,124.869,163.5,132.364" transform="translate(301.107 9.779)" fill="none" stroke="#544ee0" stroke-miterlimit="10" stroke-width="2"/>
      <path id="Path_9557" data-name="Path 9557" d="M0,0a1313.21,1313.21,0,0,1,159.59,77.9c22.564,12.971,45.067,26.9,60.976,45.883A109.671,109.671,0,0,1,243.775,171.2c8.905,40-2.222,84.748-18.448,124a645.259,645.259,0,0,1-77.293,136.115q-3.808,5.157-7.722,10.256c-34.73,45.254-76.5,87.609-98.149,138.7-15.009,35.412-18.035,76.826-3.492,111.372a110.976,110.976,0,0,0,36.171,46.149c24.813,18.686,57.891,28.371,91.331,31.332,6.242.553,12.509.878,18.754.986,39.685.678,78.825-6.639,116.214-15.18,42.989-9.722,86.28-20.287,129.465-12.7,41.946,7.365,79.426,34.792,92.058,70.432,17.975,50.714-11.305,102.709-31.861,151.192q-2.432,5.733-4.7,11.536c-22.883,58.473-33.029,121.628-12.8,180.507,21.554,62.773,84.03,118.784,161.571,125.072" transform="translate(286.052 19.557)" fill="none" stroke="#544ee0" stroke-miterlimit="10" stroke-width="2"/>
      <path id="Path_9558" data-name="Path 9558" d="M0,0A1184.477,1184.477,0,0,1,157.7,78.1c22.161,13.1,44.174,27.17,59.849,46.073A112.535,112.535,0,0,1,240.711,171.2c9.267,39.672-.764,83.934-15.9,123.018a628.628,628.628,0,0,1-73.465,135.818q-3.659,5.159-7.422,10.263c-33.4,45.294-73.946,87.757-94.419,138.664-14.538,36.149-16.6,78.258-.651,112.864a114.193,114.193,0,0,0,38.207,45.7c25.664,18.3,59.42,27.638,93.379,30.625,6.341.557,12.709.9,19.057,1.046,40.319.909,80.178-5.587,118.153-12.89,43.752-8.279,87.266-16.343,130.314-7.488,40.336,8.3,76.594,34.752,89.142,69.464,17.861,49.4-9.082,100.03-27.411,147.119q-2.166,5.569-4.178,11.2c-20.242,56.736-27.9,117.447-6.658,173.583,22.628,59.848,84.167,112.7,159.639,117.78" transform="translate(270.996 29.336)" fill="none" stroke="#544ee0" stroke-miterlimit="10" stroke-width="2"/>
      <path id="Path_9559" data-name="Path 9559" d="M0,0A1075.637,1075.637,0,0,1,155.812,78.3c21.754,13.228,43.28,27.442,58.719,46.265A115.59,115.59,0,0,1,237.646,171.2c9.63,39.343.7,83.119-13.344,122.039a612.438,612.438,0,0,1-69.639,135.521q-3.508,5.161-7.122,10.269c-32.067,45.335-71.367,87.916-90.688,138.63C42.8,614.557,41.694,657.353,59.045,692.018c8.874,17.771,22.231,33.1,40.242,45.239,26.515,17.911,60.948,26.906,95.426,29.917,6.439.562,12.908.928,19.36,1.108,40.951,1.136,81.515-4.605,120.092-10.6,44.5-6.916,88.216-12.435,131.164-2.271,38.715,9.162,73.76,34.712,86.226,68.5C569.3,871.991,544.7,921.258,528.6,966.951q-1.9,5.405-3.654,10.862c-17.6,55-22.766,113.264-.514,166.658,23.7,56.924,84.3,106.615,157.708,110.489" transform="translate(255.941 39.114)" fill="none" stroke="#544ee0" stroke-miterlimit="10" stroke-width="2"/>
      <path id="Path_9560" data-name="Path 9560" d="M0,0A981.878,981.878,0,0,1,153.923,78.5c21.347,13.356,42.385,27.713,57.588,46.456a119.005,119.005,0,0,1,23.071,46.247c9.992,39.014,2.155,82.3-10.793,121.059A596.717,596.717,0,0,1,157.978,427.49q-3.359,5.163-6.823,10.276c-30.738,45.377-68.765,88.086-86.958,138.6-13.56,37.648-13.718,81.123,5.034,115.848C78.817,710,92.905,725.116,111.509,737c27.367,17.523,62.478,26.174,97.474,29.21,6.539.566,13.108.952,19.662,1.17,41.584,1.364,82.869-3.565,122.032-8.314,45.259-5.488,89.138-8.574,132.013,2.944,37.087,9.962,70.926,34.672,83.31,67.529,17.633,46.771-4.633,94.674-18.509,138.973q-1.64,5.239-3.127,10.525c-14.959,53.262-17.636,109.082,5.63,159.734,24.78,54,84.44,100.531,155.776,103.2" transform="translate(240.885 48.894)" fill="none" stroke="#544ee0" stroke-miterlimit="10" stroke-width="2"/>
      <path id="Path_9561" data-name="Path 9561" d="M0,0A900.542,900.542,0,0,1,152.035,78.707c20.942,13.484,41.491,27.982,56.458,46.646a122.706,122.706,0,0,1,23.024,45.858c10.354,38.684,3.615,81.489-8.24,120.08a581.594,581.594,0,0,1-61.984,134.926q-3.209,5.167-6.523,10.284c-29.407,45.418-66.139,88.266-83.229,138.564C58.492,613.471,59.26,657.619,79.418,692.4c10.3,17.817,25.116,32.709,44.314,44.331,28.218,17.135,64.006,25.443,99.52,28.5,6.638.571,13.309.979,19.967,1.231,42.216,1.594,84.221-2.522,123.97-6.025,46.025-4.056,90.039-4.756,132.862,8.161,35.46,10.694,68.093,34.632,80.393,66.56,17.52,45.458-2.408,92-14.057,134.9q-1.377,5.073-2.6,10.187c-12.318,51.524-12.506,104.9,11.776,152.81,25.855,51.074,84.575,94.446,153.841,95.9" transform="translate(225.83 58.673)" fill="none" stroke="#544ee0" stroke-miterlimit="10" stroke-width="2"/>
      <path id="Path_9562" data-name="Path 9562" d="M0,0A829.31,829.31,0,0,1,150.146,78.908c20.537,13.613,40.6,28.252,55.331,46.838a126.848,126.848,0,0,1,22.978,45.469c10.716,38.355,5.074,80.674-5.689,119.1a566.969,566.969,0,0,1-58.157,134.628q-3.058,5.169-6.223,10.291c-28.078,45.459-63.489,88.455-79.5,138.532-12.524,39.17-10.841,83.986,10.72,118.829,11.009,17.84,26.557,32.512,46.348,43.877,29.069,16.746,65.535,24.71,101.567,27.8,6.739.576,13.509,1,20.271,1.292,42.848,1.822,85.576-1.477,125.909-3.737,46.792-2.622,90.926-.991,133.712,13.375,33.837,11.362,65.26,34.593,77.477,65.595,17.406,44.144-.185,89.319-9.605,130.828q-1.113,4.91-2.078,9.85c-9.677,49.787-7.376,100.719,17.92,145.885,26.931,48.149,84.712,88.362,151.91,88.613" transform="translate(210.774 68.451)" fill="none" stroke="#544ee0" stroke-miterlimit="10" stroke-width="2"/>
      <path id="Path_9563" data-name="Path 9563" d="M0,0A766.514,766.514,0,0,1,148.256,79.109c20.131,13.741,39.707,28.522,54.2,47.03a131.381,131.381,0,0,1,22.933,45.08c11.076,38.026,6.532,79.859-3.14,118.122a552.88,552.88,0,0,1-54.327,134.331q-2.909,5.171-5.927,10.3c-26.745,45.5-60.812,88.651-75.766,138.5-11.984,39.94-9.4,85.419,13.56,120.321,11.722,17.863,28,32.315,48.385,43.422C178.1,752.57,215.238,760.189,251.789,763.3c6.838.581,13.711,1.028,20.574,1.355,43.482,2.05,86.934-.429,127.85-1.448,47.556-1.186,91.809,2.718,134.563,18.59C567,793.76,597.2,816.348,609.333,846.421c17.291,42.831,2.042,86.641-5.155,126.756q-.848,4.746-1.55,9.513c-7.036,48.05-2.247,96.537,24.065,138.962,28.005,45.223,84.847,82.276,149.977,81.319" transform="translate(195.721 78.23)" fill="none" stroke="#544ee0" stroke-miterlimit="10" stroke-width="2"/>
      <path id="Path_9564" data-name="Path 9564" d="M0,0a710.685,710.685,0,0,1,146.37,79.312c19.725,13.869,38.811,28.793,53.07,47.219a136.437,136.437,0,0,1,22.886,44.692c11.441,37.7,7.994,79.044-.587,117.143-10.45,46.013-27.631,91.188-50.5,134.034q-2.76,5.173-5.626,10.3C140.2,478.244,107.5,521.558,93.575,571.169c-11.427,40.715-7.964,86.851,16.4,121.813,12.434,17.885,29.442,32.118,50.419,42.967,30.772,15.971,68.593,23.246,105.661,26.379,6.938.586,13.91,1.055,20.877,1.416,44.113,2.281,88.289.621,129.788.841,48.326.256,92.7,6.366,135.412,23.807,30.628,12.507,59.591,34.512,71.644,63.659,17.178,41.516,4.266,83.962-.7,122.682q-.585,4.58-1.026,9.176c-4.394,46.313,2.887,92.354,30.209,132.038,29.083,42.3,84.985,76.192,148.047,74.028" transform="translate(180.665 88.009)" fill="none" stroke="#544ee0" stroke-miterlimit="10" stroke-width="2"/>
      <path id="Path_9566" data-name="Path 9566" d="M0,0A616.075,616.075,0,0,1,142.591,79.714c18.914,14.127,37.024,29.334,50.812,47.6A148.543,148.543,0,0,1,216.2,171.231c12.163,37.037,10.91,77.415,4.515,115.185-7.8,45.559-22.46,90.564-42.846,133.44q-2.46,5.177-5.026,10.317c-22.754,45.623-52.655,89.273-64.577,138.4-10.261,42.277-5.087,89.716,22.089,124.8,13.858,17.931,32.325,31.724,54.491,42.058,32.474,15.194,71.65,21.78,109.756,24.963q10.7.9,21.484,1.54c45.378,2.736,91,2.727,133.665,5.417,49.859,3.144,94.547,13.465,137.111,34.239,27.5,13.423,53.924,34.432,65.812,61.722,16.95,38.889,8.714,78.607,8.2,114.539q-.058,4.25.025,8.5c.888,42.839,13.147,83.991,42.5,118.189,31.233,36.45,85.258,64.023,144.182,59.444" transform="translate(150.554 107.566)" fill="none" stroke="#544ee0" stroke-miterlimit="10" stroke-width="2"/>
      <path id="Path_9567" data-name="Path 9567" d="M0,0A575.713,575.713,0,0,1,140.7,79.917c18.507,14.254,36.129,29.6,49.682,47.793a155.732,155.732,0,0,1,22.748,43.523c12.526,36.71,12.371,76.6,7.068,114.207-6.481,45.331-19.874,90.251-39.019,133.143q-2.311,5.179-4.727,10.324c-21.423,45.663-49.9,89.488-60.847,138.365-9.65,43.063-3.649,91.149,24.932,126.289,14.569,17.953,33.768,31.526,56.525,41.6,33.327,14.807,73.179,21.049,111.8,24.257q10.854.9,21.788,1.6c46.011,2.965,92.356,3.785,135.6,7.706,50.626,4.591,95.53,16.909,137.96,39.454,25.982,13.8,51.092,34.392,62.9,60.755,16.836,37.574,10.938,75.928,12.65,110.465q.205,4.086.55,8.163c3.529,41.1,18.277,79.808,48.641,111.264,32.31,33.525,85.395,57.939,142.25,52.152" transform="translate(135.499 117.345)" fill="none" stroke="#544ee0" stroke-miterlimit="10" stroke-width="2"/>
      <path id="Path_9568" data-name="Path 9568" d="M0,0A539.135,539.135,0,0,1,138.815,80.118c18.1,14.383,35.235,29.874,48.551,47.984a164.046,164.046,0,0,1,22.7,43.136c12.888,36.379,13.829,75.785,9.619,113.228C214.53,329.569,202.4,374.4,184.5,417.311q-2.161,5.181-4.427,10.331c-20.094,45.7-47.115,89.706-57.118,138.332-9.021,43.85-2.21,92.581,27.774,127.781,15.282,17.976,35.21,31.331,58.562,41.148C243.466,749.321,284,755.22,323.137,758.452q11,.909,22.091,1.662c46.645,3.195,93.71,4.842,137.544,9.994,51.391,6.041,96.573,20.279,138.809,44.671,24.495,14.145,48.258,34.352,59.98,59.786,16.723,36.261,13.163,73.252,17.1,106.393q.468,3.922,1.075,7.826c6.171,39.365,23.408,75.627,54.787,104.34,33.384,30.6,85.53,51.854,140.317,44.86" transform="translate(120.443 127.123)" fill="none" stroke="#544ee0" stroke-miterlimit="10" stroke-width="2"/>
      <path id="Path_9570" data-name="Path 9570" d="M0,0A475.483,475.483,0,0,1,135.037,80.52c17.29,14.642,33.448,30.416,46.292,48.367a184.6,184.6,0,0,1,22.611,42.358c13.613,35.721,16.748,74.156,14.722,111.269-2.512,44.649-12.116,89.316-27.535,132.252q-1.861,5.185-3.829,10.343c-17.431,45.788-41.5,90.144-49.657,138.268-7.7,45.427.668,95.444,33.459,130.763,16.708,18.022,38.1,30.938,62.633,40.24,35.879,13.642,77.765,18.852,117.943,22.133q11.3.923,22.7,1.785c47.909,3.651,96.416,6.963,141.421,14.572,52.919,8.945,98.9,26.788,140.508,55.1,21.641,14.724,42.59,34.272,54.147,57.851,16.495,33.634,17.611,67.9,26,98.248q.995,3.591,2.126,7.151c11.453,35.89,33.67,67.264,67.076,90.491,35.536,24.751,85.8,39.684,136.452,30.277" transform="translate(90.333 146.68)" fill="none" stroke="#544ee0" stroke-miterlimit="10" stroke-width="2"/>
      <path id="Path_9571" data-name="Path 9571" d="M0,0a447.717,447.717,0,0,1,133.15,80.722c16.883,14.768,32.553,30.685,45.163,48.558a197.638,197.638,0,0,1,22.565,41.969c13.973,35.392,18.206,73.341,17.273,110.29-1.189,44.423-9.529,89-23.707,131.955q-1.712,5.187-3.529,10.349c-16.1,45.828-38.663,90.363-45.927,138.235-7.014,46.219,2.106,96.877,36.3,132.255,17.419,18.045,39.536,30.74,64.667,39.786,36.732,13.255,79.3,18.12,119.99,21.425q11.452.931,23,1.848c48.54,3.88,97.75,8.093,143.36,16.86,53.66,10.481,100.219,29.929,141.357,60.318,20.277,14.977,39.758,34.232,51.231,56.884,16.381,32.319,19.835,65.216,30.456,94.174q1.258,3.427,2.651,6.814c14.094,34.153,38.8,63.082,73.22,83.566,36.611,21.826,85.94,33.6,134.521,22.985" transform="translate(75.277 156.46)" fill="none" stroke="#544ee0" stroke-miterlimit="10" stroke-width="2"/>
      <path id="Path_9572" data-name="Path 9572" d="M0,0A422.169,422.169,0,0,1,131.261,80.924c16.478,14.9,31.659,30.955,44.033,48.748a213.205,213.205,0,0,1,22.518,41.581c14.336,35.062,19.667,72.526,19.825,109.311.134,44.195-6.944,88.692-19.881,131.656q-1.56,5.191-3.228,10.357c-14.771,45.87-35.813,90.58-42.2,138.2-6.3,47.008,3.545,98.309,39.145,133.747,18.13,18.068,40.977,30.543,66.7,39.33,37.583,12.867,80.824,17.388,122.037,20.719q11.6.937,23.305,1.909c49.174,4.108,99.1,9.145,145.3,19.148,54.424,11.924,101.663,33,142.208,65.533,18.962,15.216,36.924,34.191,48.315,55.915,16.267,31.005,22.06,62.539,34.906,90.1q1.523,3.263,3.177,6.477c16.736,32.416,43.93,58.9,79.364,76.642,37.687,18.9,86.077,27.515,132.589,15.693" transform="translate(60.222 166.239)" fill="none" stroke="#544ee0" stroke-miterlimit="10" stroke-width="2"/>
      <path id="Path_9573" data-name="Path 9573" d="M0,0A398.661,398.661,0,0,1,129.371,81.125c16.072,15.026,30.768,31.227,42.9,48.94a232,232,0,0,1,22.473,41.192c14.7,34.733,21.125,71.71,22.377,108.332,1.456,43.967-4.359,88.381-16.054,131.359q-1.411,5.193-2.928,10.364C184.7,467.224,165.2,512.107,159.675,559.481c-5.573,47.8,4.983,99.741,41.986,135.239C220.5,712.81,244.081,725.066,270.4,733.6c38.435,12.478,82.353,16.656,124.085,20.01q11.748.945,23.609,1.97c49.8,4.337,100.453,10.2,147.236,21.437,55.186,13.367,103.247,36,143.059,70.749,17.7,15.448,34.089,34.152,45.4,54.949,16.153,29.691,24.283,59.861,39.357,86.028q1.784,3.1,3.7,6.14c19.375,30.679,49.059,54.718,85.507,69.717,38.763,15.976,86.212,21.432,130.656,8.4" transform="translate(45.166 176.017)" fill="none" stroke="#544ee0" stroke-miterlimit="10" stroke-width="2"/>
      <path id="Path_9574" data-name="Path 9574" d="M0,0A376.937,376.937,0,0,1,127.483,81.327a310.5,310.5,0,0,1,41.774,49.131,255.536,255.536,0,0,1,22.428,40.8c15.06,34.4,22.585,70.9,24.928,107.353,2.779,43.741-1.773,88.068-12.226,131.062q-1.262,5.2-2.63,10.371c-12.11,45.952-30.061,91.006-34.736,138.135-4.821,48.586,6.422,101.173,44.829,136.731,19.554,18.113,43.862,30.149,70.774,38.422,39.286,12.091,83.881,15.923,126.131,19.3q11.9.951,23.912,2.031c50.438,4.565,101.8,11.25,149.175,23.725C637.79,793.2,686.828,817.326,725.75,854.358a235.353,235.353,0,0,1,42.482,53.981c16.04,28.377,26.509,57.183,43.809,81.956q2.047,2.933,4.228,5.8c22.016,28.942,54.189,50.536,91.651,62.793,39.839,13.052,86.348,15.348,128.724,1.108" transform="translate(30.111 185.796)" fill="none" stroke="#544ee0" stroke-miterlimit="10" stroke-width="2"/>
      <path id="Path_9575" data-name="Path 9575" d="M0,0A356.88,356.88,0,0,1,125.6,81.529a323.413,323.413,0,0,1,40.645,49.322,285.214,285.214,0,0,1,22.38,40.414c15.423,34.075,24.044,70.081,27.481,106.374,4.1,43.513.814,87.755-8.4,130.765q-1.113,5.2-2.331,10.377c-10.779,45.992-27.165,91.216-31.007,138.1-4.046,49.369,7.86,102.605,47.671,138.221,20.266,18.136,45.3,29.952,72.81,37.966,40.137,11.7,85.41,15.192,128.179,18.594q12.046.961,24.215,2.1c51.07,4.794,103.157,12.3,151.115,26.011,56.711,16.255,106.891,41.82,144.758,81.182,15.315,15.919,28.422,34.072,39.565,53.014,15.925,27.062,28.734,54.5,48.259,77.883q2.313,2.768,4.755,5.464c24.658,27.206,59.321,46.354,97.8,55.87,40.913,10.127,86.483,9.261,126.791-6.184" transform="translate(15.055 195.575)" fill="none" stroke="#544ee0" stroke-miterlimit="10" stroke-width="2"/>
      <path id="Path_9576" data-name="Path 9576" d="M0,0C85.249,32.237,150.86,97.093,185.556,171.268s40.083,156.93,25.46,235.864c-9.191,49.608-26.06,98.3-29.308,148.453s9.3,104.037,50.514,139.713c51.579,44.647,132.109,49.621,205.07,55.4,119.985,9.5,250.693,34.279,323.181,116.854,36.106,41.131,54.014,93.083,94.64,130.984,56.326,52.549,154.6,67.783,228.8,35.47" transform="translate(0 205.353)" fill="none" stroke="#544ee0" stroke-miterlimit="10" stroke-width="2"/>
    </g>
  </g>
</svg>
